# xmcd CD database file
#
# Track frame offsets:
#	150
#	18196
#	39506
#	74435
#	94781
#	127225
#	152784
#	186191
#	213167
#
# Disc length: 3318 seconds
#
# Revision: 0
# Processed by: cddbd v1.5.2PL0 Copyright (c) Steve Scherf et al.
# Submitted via: CDex 1.70beta2
#
DISCID=790cf409
DTITLE=Tetsuro Kawashima - Dyas of Bird
DYEAR=2010
DGENRE=Jazz
TTITLE0=My Little Suede Shoes
TTITLE1=Flight Feather
TTITLE2=April In Paris
TTITLE3=Relaxin' At Camarillo
TTITLE4=Lover Man
TTITLE5=Scrapple From The Apple
TTITLE6=D Quick
TTITLE7=Days Of Bird
TTITLE8=A Night In Tunisia
EXTD=YEAR: 2010
EXTT0=
EXTT1=
EXTT2=
EXTT3=
EXTT4=
EXTT5=
EXTT6=
EXTT7=
EXTT8=
PLAYORDER=
